<?xml version="1.0" encoding="UTF-8"?>
<svg width="56px" height="55px" viewBox="0 0 56 55" version="1.1" xmlns="http://www.w3.org/2000/svg" xmlns:xlink="http://www.w3.org/1999/xlink">
    <!-- Generator: Sketch 52.5 (67469) - http://www.bohemiancoding.com/sketch -->
    <title>Group 38 Copy 2</title>
    <desc>Created with Sketch.</desc>
    <g id="Page-1" stroke="none" stroke-width="1" fill="none" fill-rule="evenodd">
        <g id="Group-38-Copy-2" fill-rule="nonzero">
            <polygon id="switch" fill="#B0B0B0" points="34.5446217 27.5 54.212766 1.19565217 51.3079347 1.19565217 31.5744681 27.5"></polygon>
            <path d="M0.595744681,0 L0.595744681,55 L55.4042553,55 L55.4042553,0 L0.595744681,0 Z M54.0992919,53.6907024 L1.90071972,53.6907024 L1.90071972,48.4528754 L4.2020641,48.4528754 C4.23087359,48.2508071 5.5202683,46.3938758 5.69649536,46.2161075 C5.87088363,46.0356616 10.2946887,40.2023479 10.2946887,40.2023479 L18.0534568,40.2023479 L18.9615667,43.35678 C18.9615667,43.35678 16.6965744,46.3270739 16.0888141,47.0444219 C15.7282489,47.467579 14.6969466,48.4528696 14.6969466,48.4528696 L18.3465189,48.4528696 C18.3465189,48.4528696 18.4723796,48.1497245 18.7646258,47.6046965 C19.058703,47.0606756 20.0917512,45.8019843 20.0917512,45.8019843 C20.0917512,45.8019843 20.5431862,47.2113614 20.5790976,47.44955 C20.6249453,47.7445712 20.7481396,48.4528677 20.7481396,48.4528677 L24.4382251,48.4528677 C24.4382251,48.4528677 24.5686064,48.1713469 24.8626816,47.627326 C25.1539958,47.0823019 26.2230521,45.9066681 26.2230521,45.9066681 C26.2230521,45.9066681 26.6330517,47.2113692 26.6699665,47.4495577 C26.7158258,47.7445789 26.8380882,48.4528754 26.8380882,48.4528754 L31.554967,48.4528754 C31.554967,48.4528754 30.8500646,47.2257893 30.6908641,46.8161093 C30.5991571,46.588734 29.1227773,41.9510021 29.1227773,41.9510021 L30.3519408,40.2023479 L38.1700101,40.2023479 C38.1700101,40.2023479 39.9503165,45.949913 40.1625516,46.7096696 C40.3013282,47.2808001 40.3787727,47.865199 40.3935611,48.4528754 L45.3154764,48.4528754 C44.5701537,47.9232669 42.6953599,41.2760608 41.7855118,38.7217373 L39.4009196,30.4287953 C39.2849082,30.1129917 39.1968053,28.9716465 39.1968053,28.9716465 L35.3880345,28.9716465 C35.1839067,29.516591 34.8359712,30.0173651 34.5995324,30.457622 C34.3063639,31.0026616 29.4680503,37.3691753 28.4043325,38.7217334 C28.247895,38.9229616 28.15712,39.0348496 28.15712,39.0294013 C28.15712,39.016741 28.123875,38.8976565 28.0761866,38.7217334 C27.900878,38.1090615 27.5411519,36.8783743 27.5411519,36.8783743 C27.5411519,36.8783743 31.6637895,31.6206867 32.0845646,31.0856317 C33.3371258,29.495801 34.0518737,28.9716484 34.0518737,28.9716484 L30.1478285,28.9716484 C30.1156482,29.3965386 29.9801172,29.8070251 29.7531114,30.1671391 C29.5661089,30.4558718 26.3705451,34.4755767 26.3705451,34.4755767 C26.3705451,34.4755767 25.3661265,30.8384791 25.1755469,30.2501073 C25.0577498,29.8347057 25.0061623,29.4032228 25.0226961,28.9716484 L20.3372177,28.9716484 C20.5134467,29.1727932 21.0547364,30.5153685 21.0547364,30.5153685 L23.3646618,37.6507058 L22.0132145,39.3849476 C21.9556709,39.2982792 19.5117834,31.2516691 19.4075665,30.916001 C19.2906387,30.5361761 19.1665259,28.9716601 19.1665259,28.9716601 L15.1554737,28.9716601 C15.1554737,28.9716601 14.3768132,30.6724592 13.8364439,31.460117 C13.6134469,31.7858101 11.0706713,35.2055015 8.36061113,38.721747 C5.34487653,42.7540074 2.06212825,46.843182 1.99104616,46.8955734 C1.9592864,46.9231346 1.92912806,46.9525011 1.90071972,46.9835282 L1.90071972,1.30975941 L54.0992919,1.30975941 L54.0992919,53.6907024 Z M16.1355841,34.0974961 C16.3118034,34.8012602 17.3214889,37.924091 17.3214889,37.924091 L12.1082401,37.924091 C12.1082401,37.924091 15.4000199,33.9026321 15.9592584,32.6953232 C16.020495,32.5618107 16.0330165,32.6655632 16.0330165,32.7295963 C16.0110787,33.1880598 16.0455275,33.6474889 16.1355841,34.0974961 Z M22.9150694,42.1151884 L24.3025111,40.3088847 C24.3025111,40.3088847 25.1108164,42.7685052 25.2430268,42.9110768 L23.8079914,44.8888603 L22.9150694,42.1151884 Z M36.164951,34.0974961 C36.3411683,34.8012621 37.3517588,37.9240968 37.3517588,37.9240968 L32.1385273,37.9240968 C32.1385273,37.9240968 35.4302955,33.9026379 35.9895456,32.695329 C36.0506759,32.5618166 36.0623718,32.665569 36.0623718,32.7296021 C36.0404399,33.188064 36.074892,33.6474909 36.164949,34.0974961 L36.164951,34.0974961 Z" id="axa" fill="#F2F2F2"></path>
        </g>
    </g>
</svg>