<svg xmlns="http://www.w3.org/2000/svg" width="479" height="384" viewBox="0 0 479 384">
  <g id="Projects" transform="translate(-0.714 -0.714)">
    <g id="Group-35-Copy-2" transform="translate(-1776 -15)">
      <g id="Group-45" transform="translate(7.714 7.714)">
        <g id="Group-9-Copy" transform="translate(1769 8)">
          <path id="Mask" d="M0,0H479V384H0Z" fill="none"/>
          <g id="Group-81">
            <g id="Group" transform="translate(37.571 31.714)">
              <g id="Group_2" data-name="Group 2">
                <path id="FUTURE" d="M1.934,15.835V8.559h7V7.26h-7V1.3H9.65V0H.488V15.835Zm22.762.271c3.572,0,6-2.389,6-5.621V0H29.25V10.384A4.25,4.25,0,0,1,24.7,14.745a4.25,4.25,0,0,1-4.554-4.361V0H18.7V10.484C18.688,13.716,21.132,16.105,24.7,16.105Zm21.154-.271V1.3h5.018V0H39.387V1.3H44.4V15.835Zm19.708.271c3.572,0,6-2.389,6-5.621V0H70.113V10.384a4.558,4.558,0,0,1-9.108,0V0H59.559V10.484C59.551,13.716,61.994,16.105,65.559,16.105Zm17.1-.271v-6.4h3.688q.313,0,.6-.023l3.471,6.425h1.67l-3.657-6.7A4.292,4.292,0,0,0,91.422,4.74c0-2.768-1.74-4.74-5.1-4.74H81.208V15.835ZM86.3,8.111H82.654V1.3H86.28C88.785,1.3,90,2.667,90,4.74S88.785,8.111,86.3,8.111Zm23.428,7.724v-1.3h-7.9V8.559h7.253V7.26h-7.253V1.3h7.74V0H100.39V15.835Z" fill="#fff"/>
                <path id="VISION" d="M7.307,38.464l5.76-15.835H11.551L6.6,36.585H6.464L1.515,22.63H0L5.76,38.464Zm17.984,0V22.63H23.845V38.464Zm16.994.271c3.433,0,5.49-1.941,5.49-4.477,0-2.629-2.289-3.68-4.3-4.245l-1.67-.479c-1.539-.433-3.155-1.214-3.155-2.884,0-1.7,1.523-2.946,3.734-2.946,2.1,0,3.6,1.121,3.773,2.884h1.4c-.108-2.4-2.188-4.183-5.134-4.183-2.923,0-5.173,1.755-5.173,4.307,0,2.034,1.438,3.309,3.92,4.044l1.894.557c1.964.572,3.309,1.307,3.309,2.923,0,1.9-1.724,3.178-4.09,3.178-2.134,0-3.8-1.028-3.959-2.907H36.841C37.012,37.011,39.053,38.735,42.285,38.735Zm18.486-.271V22.63H59.325V38.464Zm18.4.217c4,0,6.85-3.178,6.85-8.134s-2.845-8.134-6.85-8.134S72.33,25.6,72.33,30.547,75.168,38.681,79.173,38.681Zm0-1.361c-3.131,0-5.443-2.528-5.443-6.773,0-4.268,2.335-6.773,5.443-6.773,3.124,0,5.443,2.513,5.443,6.773S82.3,37.32,79.173,37.32Zm19.855,1.144V25.2h.124l9.356,13.26h1.407V22.63h-1.423V35.905h-.123L98.981,22.63h-1.4V38.464Z" fill="#fff"/>
              </g>
              <g id="Group_3" data-name="Group 3" opacity="0.659">
                <path id="FUTURE-2" data-name="FUTURE" d="M1.934,15.835V8.559h7V7.26h-7V1.3H9.65V0H.488V15.835Zm22.762.271c3.572,0,6-2.389,6-5.621V0H29.25V10.384A4.25,4.25,0,0,1,24.7,14.745a4.25,4.25,0,0,1-4.554-4.361V0H18.7V10.484C18.688,13.716,21.132,16.105,24.7,16.105Zm21.154-.271V1.3h5.018V0H39.387V1.3H44.4V15.835Zm19.708.271c3.572,0,6-2.389,6-5.621V0H70.113V10.384a4.558,4.558,0,0,1-9.108,0V0H59.559V10.484C59.551,13.716,61.994,16.105,65.559,16.105Zm17.1-.271v-6.4h3.688q.313,0,.6-.023l3.471,6.425h1.67l-3.657-6.7A4.292,4.292,0,0,0,91.422,4.74c0-2.768-1.74-4.74-5.1-4.74H81.208V15.835ZM86.3,8.111H82.654V1.3H86.28C88.785,1.3,90,2.667,90,4.74S88.785,8.111,86.3,8.111Zm23.428,7.724v-1.3h-7.9V8.559h7.253V7.26h-7.253V1.3h7.74V0H100.39V15.835Z" fill="#fff"/>
                <path id="VISION-2" data-name="VISION" d="M7.307,38.464l5.76-15.835H11.551L6.6,36.585H6.464L1.515,22.63H0L5.76,38.464Zm17.984,0V22.63H23.845V38.464Zm16.994.271c3.433,0,5.49-1.941,5.49-4.477,0-2.629-2.289-3.68-4.3-4.245l-1.67-.479c-1.539-.433-3.155-1.214-3.155-2.884,0-1.7,1.523-2.946,3.734-2.946,2.1,0,3.6,1.121,3.773,2.884h1.4c-.108-2.4-2.188-4.183-5.134-4.183-2.923,0-5.173,1.755-5.173,4.307,0,2.034,1.438,3.309,3.92,4.044l1.894.557c1.964.572,3.309,1.307,3.309,2.923,0,1.9-1.724,3.178-4.09,3.178-2.134,0-3.8-1.028-3.959-2.907H36.841C37.012,37.011,39.053,38.735,42.285,38.735Zm18.486-.271V22.63H59.325V38.464Zm18.4.217c4,0,6.85-3.178,6.85-8.134s-2.845-8.134-6.85-8.134S72.33,25.6,72.33,30.547,75.168,38.681,79.173,38.681Zm0-1.361c-3.131,0-5.443-2.528-5.443-6.773,0-4.268,2.335-6.773,5.443-6.773,3.124,0,5.443,2.513,5.443,6.773S82.3,37.32,79.173,37.32Zm19.855,1.144V25.2h.124l9.356,13.26h1.407V22.63h-1.423V35.905h-.123L98.981,22.63h-1.4V38.464Z" fill="#fff"/>
              </g>
            </g>
          </g>
          <text id="A-concept-that-hinge" transform="translate(37.571 164.386)" fill="#fff" font-size="30.85" font-family="Graphik-Semibold, Graphik" font-weight="600" letter-spacing="-0.028em"><tspan x="0" y="0">A concept that hinges </tspan><tspan x="0" y="35.14">on merging fantasy and </tspan><tspan x="0" y="70.28">real world elements for </tspan><tspan x="0" y="105.42">mixed reality headsets</tspan></text>
          <g id="Group-11">
            <g id="Group_4" data-name="Group 4" transform="translate(37.571 301.714)">
              <path id="Rectangle" d="M20,0H156a20,20,0,0,1,0,40H20A20,20,0,0,1,20,0Z" transform="translate(0.429 0.286)" fill="#fff" fill-rule="evenodd" opacity="0.2"/>
              <g id="Group-40" transform="translate(22.714 8)">
                <text id="View-case-study" transform="translate(0.714 16.286)" fill="#fff" font-size="15" font-family="Graphik-Semibold, Graphik" font-weight="600" letter-spacing="-0.025em"><tspan x="0" y="0">VIEW CASE STUDY</tspan></text>
              </g>
            </g>
          </g>
          <g id="Group-48-Copy">
            <g id="Group-46" transform="translate(342.416 33.032)">
              <g id="Group-2" data-name="Group" transform="translate(45.578 7.859)">
                <text id="Concepts" transform="translate(3.318 20.819) rotate(-7)" fill="#ffa7cc" font-size="13.6" font-family="ArialMT, Arial" letter-spacing="0.052em"><tspan x="0" y="0">Concepts</tspan></text>
              </g>
              <path id="grappus" d="M5.273.135A4.339,4.339,0,0,1,7.328.562a2.589,2.589,0,0,1,1.1.967h0V.337h3.31v9.785A6.193,6.193,0,0,1,10.2,14.43a5.8,5.8,0,0,1-4.543,1.7,6.175,6.175,0,0,1-3.869-1.181A4.334,4.334,0,0,1,0,12.147H3.461a2.635,2.635,0,0,0,.431.495,2.5,2.5,0,0,0,1.609.517q2.808,0,2.808-2.857h0V9.785a3.389,3.389,0,0,1-3.036,1.26A5.033,5.033,0,0,1,1.507,9.492,5.363,5.363,0,0,1,0,5.6,5.467,5.467,0,0,1,1.5,1.743,4.937,4.937,0,0,1,5.273.135Zm.639,2.992a2.409,2.409,0,0,0-1.724.686A2.359,2.359,0,0,0,3.47,5.6,2.333,2.333,0,0,0,5.913,8.075,2.36,2.36,0,0,0,7.659,7.4a2.435,2.435,0,0,0,.673-1.8,2.383,2.383,0,0,0-2.42-2.474Zm9.953,8.39V6.636a3.127,3.127,0,0,1,.742-2.294,2.433,2.433,0,0,1,1.883-.678H19.61V.337A3.3,3.3,0,0,0,18.7.225a4.066,4.066,0,0,0-1.689.382,2.5,2.5,0,0,0-1.256,1.237V.337H12.4V11.517Zm7.821.315a3.478,3.478,0,0,0,3.2-1.575v1.26h3.1v-7.2a4.191,4.191,0,0,0-1.221-3.1A5.2,5.2,0,0,0,24.965,0a5.156,5.156,0,0,0-3.573,1.158,3.84,3.84,0,0,0-1.4,2.553q3.061.006,3.164,0a1.782,1.782,0,0,1,.409-.551,2.259,2.259,0,0,1,2.6-.135,1.06,1.06,0,0,1,.445.866q0,.652-.822.765l-2.671.4A4.444,4.444,0,0,0,20.7,6.152a2.964,2.964,0,0,0-.936,2.283,3.179,3.179,0,0,0,1.062,2.4A4.006,4.006,0,0,0,23.687,11.832Zm.845-2.474a1.367,1.367,0,0,1-1.016-.337,1.115,1.115,0,0,1-.331-.81q0-1.035,1.278-1.237h0l2.146-.337v.495a2.163,2.163,0,0,1-.594,1.71A2.177,2.177,0,0,1,24.531,9.357Zm9.588,6.433V10.639A3.8,3.8,0,0,0,37.2,11.764a5.047,5.047,0,0,0,3.892-1.653,5.993,5.993,0,0,0,1.518-4.218,6.138,6.138,0,0,0-1.427-4.2A5.31,5.31,0,0,0,35.295.484a3,3,0,0,0-1.29,1h0V.337H30.649V15.791ZM36.63,8.705a2.487,2.487,0,0,1-1.815-.731,2.759,2.759,0,0,1-.742-2.058,2.721,2.721,0,0,1,.742-2.047,2.508,2.508,0,0,1,1.815-.72,2.536,2.536,0,0,1,1.838.72,2.721,2.721,0,0,1,.742,2.047,2.773,2.773,0,0,1-.753,2.069A2.5,2.5,0,0,1,36.63,8.705Zm10.106,7.086V10.639a3.8,3.8,0,0,0,3.082,1.125,5.047,5.047,0,0,0,3.892-1.653,5.993,5.993,0,0,0,1.518-4.218A6.138,6.138,0,0,0,53.8,1.7,5.31,5.31,0,0,0,47.912.484a3,3,0,0,0-1.29,1h0V.337H43.266V15.791Zm2.511-7.086a2.487,2.487,0,0,1-1.815-.731,2.759,2.759,0,0,1-.742-2.058,2.721,2.721,0,0,1,.742-2.047,2.508,2.508,0,0,1,1.815-.72,2.536,2.536,0,0,1,1.838.72,2.721,2.721,0,0,1,.742,2.047,2.773,2.773,0,0,1-.753,2.069A2.5,2.5,0,0,1,49.247,8.705Zm10.927,3.059a4.621,4.621,0,0,0,1.781-.349,2.552,2.552,0,0,0,1.256-1.023v1.125h3.31V.337H63.05V6.7a1.9,1.9,0,0,1-.514,1.383,1.837,1.837,0,0,1-1.381.529,1.7,1.7,0,0,1-1.358-.54,2.053,2.053,0,0,1-.468-1.395V.337H55.86V7.4a4.417,4.417,0,0,0,1.153,3.115A4.091,4.091,0,0,0,60.174,11.764Zm11.568.09a4.684,4.684,0,0,0,3.333-1.113,3.528,3.528,0,0,0,1.187-2.666,3.14,3.14,0,0,0-.89-2.227,4.72,4.72,0,0,0-2.6-1.282l-1.507-.292q-.89-.157-.89-.832a.831.831,0,0,1,.365-.7,1.419,1.419,0,0,1,.868-.27,1.6,1.6,0,0,1,1.153.382,1.529,1.529,0,0,1,.34.472q.274,0,3,0a3.581,3.581,0,0,0-1.221-2.283A4.677,4.677,0,0,0,71.56,0a4.584,4.584,0,0,0-3.116,1.08A3.359,3.359,0,0,0,67.2,3.711a3.131,3.131,0,0,0,.822,2.171,4.6,4.6,0,0,0,2.557,1.271l1.3.292Q73,7.693,73,8.368a.857.857,0,0,1-.342.686,1.511,1.511,0,0,1-.982.281,1.762,1.762,0,0,1-1.29-.439,1.612,1.612,0,0,1-.373-.551q-.264,0-3.063,0a3.233,3.233,0,0,0,.308,1.08,4.721,4.721,0,0,0,.776,1.136,3.655,3.655,0,0,0,1.484.934A6.377,6.377,0,0,0,71.742,11.854Z" fill="#ffe8f1"/>
            </g>
          </g>
        </g>
      </g>
    </g>
  </g>
</svg>
