<svg xmlns="http://www.w3.org/2000/svg" width="618.457" height="265.9" viewBox="0 0 618.457 265.9">
  <g id="Group_2436" data-name="Group 2436" transform="translate(-18 -44.48)">
    <g id="Group_3" data-name="Group 3">
      <path id="Path_2" data-name="Path 2" d="M353.4,277.142h-56.06v32.035H353.4Z" fill="#d6d6d6"/>
      <path id="Path_3" data-name="Path 3" d="M385.92,116.167h-18.1V308.376h18.1Z" fill="#fefefe"/>
      <path id="Path_4" data-name="Path 4" d="M458.319,116.167h-72.4V308.376h72.4Z" fill="#d5d5d5"/>
      <path id="Path_5" data-name="Path 5" d="M416.086,116.167h-18.1V308.376h18.1Z" fill="#fefefe"/>
      <path id="Path_6" data-name="Path 6" d="M416.086,128.18h41.227v4H416.086Z" fill="#2473bd" fill-rule="evenodd"/>
      <path id="Path_7" data-name="Path 7" d="M416.086,139.192h41.227v4H416.086Z" fill="#2473bd" fill-rule="evenodd"/>
      <path id="Path_8" data-name="Path 8" d="M416.086,150.2h41.227v4H416.086Z" fill="#2473bd" fill-rule="evenodd"/>
      <path id="Path_9" data-name="Path 9" d="M416.086,161.216h41.227v4H416.086Z" fill="#2473bd" fill-rule="evenodd"/>
      <path id="Path_10" data-name="Path 10" d="M416.086,172.228h41.227v4H416.086Z" fill="#2473bd" fill-rule="evenodd"/>
      <path id="Path_11" data-name="Path 11" d="M416.086,182.239h41.227v4H416.086Z" fill="#2473bd" fill-rule="evenodd"/>
      <path id="Path_12" data-name="Path 12" d="M416.086,128.18H369.831v4h46.255Z" fill="#d5d5d5"/>
      <path id="Path_13" data-name="Path 13" d="M397.986,128.18H385.92v4h12.066Z" fill="#2473bd"/>
      <path id="Path_14" data-name="Path 14" d="M416.474,139.192H369.831v4h46.643Z" fill="#d5d5d5"/>
      <path id="Path_15" data-name="Path 15" d="M397.986,138.992H385.92v4h12.066Z" fill="#2473bd"/>
      <path id="Path_16" data-name="Path 16" d="M416.086,150.2H369.831v4h46.255Z" fill="#d5d5d5"/>
      <path id="Path_17" data-name="Path 17" d="M416.474,161.216H369.831v4h46.643Z" fill="#d5d5d5"/>
      <path id="Path_18" data-name="Path 18" d="M416.086,172.228H369.831v4h46.255Z" fill="#d5d5d5"/>
      <path id="Path_19" data-name="Path 19" d="M416.086,182.239H369.831v4h46.255Z" fill="#d5d5d5"/>
      <path id="Path_20" data-name="Path 20" d="M397.986,150.2H385.92v4h12.066Z" fill="#2473bd"/>
      <path id="Path_21" data-name="Path 21" d="M397.986,161.216H385.92v4h12.066Z" fill="#2473bd"/>
      <path id="Path_22" data-name="Path 22" d="M397.986,172.228H385.92v4h12.066Z" fill="#2473bd"/>
      <path id="Path_23" data-name="Path 23" d="M397.986,182.239H385.92v4h12.066Z" fill="#2473bd"/>
      <path id="Path_24" data-name="Path 24" d="M71.1,222.683v86.494H91.119l-.013-86.494Z" fill="#d6d6d6" fill-rule="evenodd"/>
      <path id="Path_25" data-name="Path 25" d="M43.467,222.683v86.494H71.5l-.018-86.494Z" fill="#fff" fill-rule="evenodd"/>
      <path id="Path_26" data-name="Path 26" d="M152.786,189.046V309.177H165.2l-.008-120.131Z" fill="#d6d6d6" fill-rule="evenodd"/>
      <path id="Path_27" data-name="Path 27" d="M93.121,189.046V309.177h60.066l-.039-120.131Z" fill="#fff" fill-rule="evenodd"/>
      <path id="Path_28" data-name="Path 28" d="M162.2,199.057h-9.009v4H162.2Z" fill="#5b79de"/>
      <path id="Path_29" data-name="Path 29" d="M162.2,210.069h-9.009v4H162.2Z" fill="#5b79de"/>
      <path id="Path_30" data-name="Path 30" d="M162.2,221.081h-9.009v4H162.2Z" fill="#5b79de"/>
      <path id="Path_31" data-name="Path 31" d="M162.2,232.093h-9.009v4H162.2Z" fill="#5b79de"/>
      <path id="Path_32" data-name="Path 32" d="M162.2,243.1h-9.009v4H162.2Z" fill="#5b79de"/>
      <path id="Path_33" data-name="Path 33" d="M153.187,199.057H103.132v4h50.055Z" fill="#d5d5d5"/>
      <path id="Path_34" data-name="Path 34" d="M153.187,210.069H103.132v4h50.055Z" fill="#d5d5d5"/>
      <path id="Path_35" data-name="Path 35" d="M153.187,221.081H103.132v4h50.055Z" fill="#d5d5d5"/>
      <path id="Path_36" data-name="Path 36" d="M153.187,232.093H103.132v4h50.055Z" fill="#d5d5d5"/>
      <path id="Path_37" data-name="Path 37" d="M153.187,243.1H103.132v4h50.055Z" fill="#d5d5d5"/>
      <path id="Path_38" data-name="Path 38" d="M201.239,258.722v48.052h39.243l-.065-48.052Z" fill="#fdfeff" fill-rule="evenodd"/>
      <path id="Path_39" data-name="Path 39" d="M299.746,166.622H259.46V309.177h40.286Z" fill="#d5d5d5"/>
      <path id="Path_40" data-name="Path 40" d="M261.474,166.622h-28.2V309.177h28.2Z" fill="#fff"/>
      <path id="Path_41" data-name="Path 41" d="M281.562,264.15V171.492h-4.016V264.15Z" fill="#2473bd"/>
      <path id="Path_42" data-name="Path 42" d="M292.605,264.15V171.492h-4.016V264.15Z" fill="#2473bd"/>
      <path id="Path_43" data-name="Path 43" d="M270.519,264.15V171.492H266.5V264.15Z" fill="#2473bd"/>
      <path id="Path_44" data-name="Path 44" d="M257.468,264.15V171.492h-4.015V264.15Z" fill="#d5d5d5"/>
      <path id="Path_45" data-name="Path 45" d="M248.935,264.15V171.492h-4.016V264.15Z" fill="#d5d5d5"/>
      <path id="Path_46" data-name="Path 46" d="M240.4,264.15V171.492h-4.016V264.15Z" fill="#d5d5d5"/>
      <path id="Path_47" data-name="Path 47" d="M181.217,258.722v50.455H202.4l-.024-50.455Z" fill="#fdfeff" fill-rule="evenodd"/>
      <path id="Path_48" data-name="Path 48" d="M201.377,258.722v50.455h38.3V283.949l-22.176-25.227Z" fill="#d6d6d6" fill-rule="evenodd"/>
      <path id="Path_49" data-name="Path 49" d="M477.654,198.256v110.12H580.671V275.948H490.7V198.256Z" fill="#fff" fill-rule="evenodd"/>
      <path id="Path_50" data-name="Path 50" d="M477.654,196.254V308.376h70.3L518.829,274.15l-28.126-.015V196.254Z" fill="#d6d6d6" fill-rule="evenodd"/>
      <path id="Path_51" data-name="Path 51" d="M471.533,196.254h6.121V308.376H441.5V226.287A30.033,30.033,0,0,1,471.533,196.254Z" fill="#fff" fill-rule="evenodd"/>
      <path id="Path_52" data-name="Path 52" d="M486.291,220.28h-4.017v14.015h4.017Z" fill="#2473bd"/>
      <path id="Path_53" data-name="Path 53" d="M486.291,238.3h-4.017v14.015h4.017Z" fill="#2473bd"/>
      <path id="Path_54" data-name="Path 54" d="M470.222,220.28H466.2v14.015h4.017Z" fill="#2473bd"/>
      <path id="Path_55" data-name="Path 55" d="M470.222,238.3H466.2v14.015h4.017Z" fill="#2473bd"/>
      <path id="Path_56" data-name="Path 56" d="M462.188,220.28h-4.017v14.015h4.017Z" fill="#2473bd"/>
      <path id="Path_57" data-name="Path 57" d="M462.188,238.3h-4.017v14.015h4.017Z" fill="#2473bd"/>
      <path id="Path_58" data-name="Path 58" d="M454.154,220.28h-4.017v14.015h4.017Z" fill="#2473bd"/>
      <path id="Path_59" data-name="Path 59" d="M454.154,238.3h-4.017v14.015h4.017Z" fill="#2473bd"/>
      <path id="Path_60" data-name="Path 60" d="M530.077,256.319V217.077h56.061v39.242h50.319V275.54l-56.233-.174V256.319Z" fill="#d5d7d4" fill-rule="evenodd"/>
      <path id="Path_61" data-name="Path 61" d="M523.99,217.077h56.061v39.242h.173v19.047l-56.234.174Z" fill="#fefffb" fill-rule="evenodd"/>
      <path id="Path_62" data-name="Path 62" d="M206.993,310.38a13.435,13.435,0,1,0-13.109-13.432A13.274,13.274,0,0,0,206.993,310.38Z"/>
      <path id="Path_63" data-name="Path 63" d="M96.5,310.38a13.435,13.435,0,1,0-13.109-13.432A13.273,13.273,0,0,0,96.5,310.38Z"/>
      <g id="Group_2" data-name="Group 2">
        <path id="Path_64" data-name="Path 64" d="M21.324,268.319a4.33,4.33,0,0,1,.417.921c1.3,4.387,0,8.406,0,10.508a4.917,4.917,0,0,1-1.288,3.762A7.7,7.7,0,0,0,18,289.144V293.6a9.075,9.075,0,0,0,9.075,9.076H226.006a6.823,6.823,0,0,0,6.13-3.828v-3.26a19.485,19.485,0,0,0-14.026-18.705q-5.7-1.666-51.893-18.568A87.265,87.265,0,0,0,136.228,253H97.949a146.292,146.292,0,0,0-37.7,4.941l-24.458,6.523H23.544a2.567,2.567,0,0,0-2.22,3.855Z" fill="#777"/>
        <path id="Path_65" data-name="Path 65" d="M184.68,293.942v4.776h47.69l.935-3.821h-7.48l-2.806,1.433H203.382l-2.805-2.388Z" fill-rule="evenodd"/>
        <path id="Path_66" data-name="Path 66" d="M20.688,269.377v12.282h3.954a3.664,3.664,0,0,0,2.473-.96l5.671-5.181a3.533,3.533,0,0,0-2.383-6.141Z" fill-rule="evenodd"/>
      </g>
      <path id="Path_67" data-name="Path 67" d="M22.36,301.682l4.669,2.906H224.043l4.669-2.906Z" fill-rule="evenodd"/>
      <path id="Path_68" data-name="Path 68" d="M48.011,274.071l99.412-.142a.638.638,0,0,0,.267-1.217c-17.357-8.028-26.97-14.4-38.177-15-17.74-.954-31.744.148-42.015,2.056a143.655,143.655,0,0,0-19.656,5.317,5.43,5.43,0,0,0-3.685,5.141,3.848,3.848,0,0,0,3.848,3.848Z" fill-rule="evenodd"/>
      <path id="Path_69" data-name="Path 69" d="M121.176,256.633l34.956,15.985H198.2l-48.122-15.985Z" fill-rule="evenodd"/>
      <path id="Path_70" data-name="Path 70" d="M174.944,282.064A11.833,11.833,0,0,0,182.379,287q4.647.986,15.8.986l-5.576-5.918Z" fill="#fdfdfd" fill-rule="evenodd"/>
      <path id="Path_71" data-name="Path 71" d="M227.92,283.05l2.788,4.932h-7.435Z" fill="#fdfdfd" fill-rule="evenodd"/>
      <path id="Path_72" data-name="Path 72" d="M196.32,282.064l6.059,6.43h16.253l6.5-6.43Z" fill="#505050" fill-rule="evenodd"/>
      <path id="Path_73" data-name="Path 73" d="M55.056,308.948a13.447,13.447,0,1,0-13.079-13.442A13.265,13.265,0,0,0,55.056,308.948Z"/>
      <path id="Path_74" data-name="Path 74" d="M40.574,303.135q-.934-23.252,15.874-23.251t15.874,23.251h79.371" fill-rule="evenodd"/>
      <path id="Path_75" data-name="Path 75" d="M175.622,303.135q.933-23.252-15.875-23.251t-15.874,23.251H64.5" fill-rule="evenodd"/>
      <path id="Path_76" data-name="Path 76" d="M57.23,310.38a13.436,13.436,0,1,0-13.073-13.432A13.256,13.256,0,0,0,57.23,310.38Z"/>
      <path id="Path_77" data-name="Path 77" d="M57.23,306.542a9.6,9.6,0,1,0-9.338-9.594A9.468,9.468,0,0,0,57.23,306.542Z" fill="#fff"/>
      <path id="Path_78" data-name="Path 78" d="M160.406,310.38a13.436,13.436,0,1,0-13.072-13.432A13.256,13.256,0,0,0,160.406,310.38Z"/>
      <path id="Path_79" data-name="Path 79" d="M160.406,306.542a9.6,9.6,0,1,0-9.337-9.594A9.468,9.468,0,0,0,160.406,306.542Z" fill="#fff"/>
      <path id="Path_80" data-name="Path 80" d="M203.281,294.416h18.892v5.813H203.281Z" fill="#505050" fill-rule="evenodd"/>
      <path id="Path_81" data-name="Path 81" d="M23.086,299.5H36.891V288.6H23.086Z" fill="#505050" fill-rule="evenodd"/>
      <path id="Path_82" data-name="Path 82" d="M76.854,299.5h60.307a18.042,18.042,0,0,0-14.984-7.993H91.838A18.044,18.044,0,0,0,76.854,299.5Z" fill="#505050" fill-rule="evenodd"/>
    </g>
    <g id="Group_4" data-name="Group 4">
      <path id="Path_83" data-name="Path 83" d="M44.859,65h4.4V49.1h5.211v-3.4H39.648v3.4h5.211Zm11.979,0h3.915V56.846a2.8,2.8,0,0,1,2.943-3.1c1.728,0,2.484.918,2.484,2.835V65H70.1V56.009c0-3.78-1.971-5.454-4.752-5.454a4.878,4.878,0,0,0-4.59,2.565V44.48H56.838Zm23.118.3c3.861,0,6.291-1.7,6.75-4.752h-3.7c-.243,1.188-1.134,1.971-2.943,1.971-2.133,0-3.4-1.35-3.51-3.7H86.734v-1.08c0-5.049-3.24-7.182-6.885-7.182A7.01,7.01,0,0,0,72.586,57.9v.216C72.586,62.624,75.691,65.3,79.957,65.3Zm-3.348-8.883c.3-2,1.485-3.159,3.24-3.159,1.863,0,2.943,1.026,3.078,3.159ZM103.436,65.3c5.211,0,8.154-2.727,8.154-7.992V45.695h-4.4v11.34c0,3.537-1.134,4.779-3.726,4.779-2.646,0-3.591-1.4-3.591-4.617v-11.5h-4.4V57.467C95.471,62.6,98.36,65.3,103.436,65.3Zm20.23,0c3.51,0,6.156-2.619,6.156-7.29v-.216c0-4.671-2.7-7.236-6.156-7.236a5.245,5.245,0,0,0-4.509,2.538V44.48h-3.915V65h3.915V62.759A4.842,4.842,0,0,0,123.666,65.3ZM122.5,62.246c-2.133,0-3.483-1.377-3.483-4.212v-.216c0-2.835,1.4-4.266,3.456-4.266,1.971,0,3.375,1.4,3.375,4.266v.216C125.853,60.788,124.665,62.246,122.5,62.246ZM138.94,65.3c3.861,0,6.291-1.7,6.75-4.752h-3.7c-.243,1.188-1.134,1.971-2.943,1.971-2.133,0-3.4-1.35-3.51-3.7h10.179v-1.08c0-5.049-3.24-7.182-6.885-7.182a7.01,7.01,0,0,0-7.263,7.344v.216C131.569,62.624,134.674,65.3,138.94,65.3Zm-3.348-8.883c.3-2,1.485-3.159,3.24-3.159,1.863,0,2.943,1.026,3.078,3.159ZM148.28,65H152.2V57.926c0-2.7,1.674-3.645,4.563-3.618V50.663a4.637,4.637,0,0,0-4.563,2.916v-2.7H148.28Zm11.048,0h3.915V56.846a2.8,2.8,0,0,1,2.943-3.1c1.728,0,2.484.918,2.484,2.835V65h3.915V56.009c0-3.78-1.971-5.454-4.752-5.454a4.878,4.878,0,0,0-4.59,2.565V50.879h-3.915Zm16.719,0h3.888V50.879h-3.888Zm1.917-16.038a2.134,2.134,0,1,0-2.214-2.133A2.147,2.147,0,0,0,177.964,48.962Zm10.7,16.335c3.726,0,5.94-1.593,5.94-4.644,0-3.024-1.944-3.915-5.481-4.428-2.052-.3-2.727-.648-2.727-1.539,0-.864.729-1.458,2-1.458a1.912,1.912,0,0,1,2.214,1.7H194.2c-.351-3.24-2.7-4.374-5.832-4.374-2.889,0-5.589,1.458-5.589,4.4,0,2.754,1.458,3.834,5.211,4.4,2.025.3,2.862.7,2.862,1.674s-.7,1.539-2.214,1.539c-1.7,0-2.322-.729-2.484-2h-3.645C182.642,63.623,184.856,65.3,188.663,65.3Zm12.229,0a4.8,4.8,0,0,0,4.266-2V65h3.807V55.793c0-3.834-2.457-5.238-5.913-5.238s-6.1,1.485-6.345,4.833h3.7a2.129,2.129,0,0,1,2.4-2c1.782,0,2.295.918,2.295,2.592v.567h-1.593c-4.32,0-7.344,1.242-7.344,4.536C196.167,64.055,198.327,65.3,200.892,65.3Zm1.161-2.727c-1.431,0-2.052-.675-2.052-1.7,0-1.512,1.323-2,3.591-2H205.1v1.188C205.1,61.625,203.781,62.57,202.053,62.57Zm15.43,2.7a7.112,7.112,0,0,0,2.376-.378V61.868a3.645,3.645,0,0,1-1.485.27c-1,0-1.566-.54-1.566-1.674v-6.8h2.97V50.879h-2.97V47.828H212.92v3.051h-1.809V53.66h1.809v7.155C212.92,63.758,214.513,65.27,217.483,65.27Zm5.128-.27H226.5V50.879h-3.888Zm1.917-16.038a2.134,2.134,0,1,0-2.214-2.133A2.147,2.147,0,0,0,224.528,48.962Zm12.157,13.365c-2.214,0-3.456-1.62-3.456-4.32v-.216c0-2.7,1.3-4.266,3.456-4.266,2.187,0,3.456,1.62,3.456,4.32v.189C240.141,60.707,238.872,62.327,236.685,62.327Zm-.027,2.97c4.239,0,7.452-2.835,7.452-7.29v-.216c0-4.4-3.186-7.236-7.425-7.236a7.081,7.081,0,0,0-7.452,7.317v.216C229.233,62.489,232.446,65.3,236.658,65.3Zm10.077-.3h3.915V56.846a2.8,2.8,0,0,1,2.943-3.1c1.728,0,2.484.918,2.484,2.835V65h3.915V56.009c0-3.78-1.971-5.454-4.752-5.454a4.878,4.878,0,0,0-4.59,2.565V50.879h-3.915ZM47.316,97.327c-2.214,0-3.456-1.62-3.456-4.32v-.216c0-2.7,1.3-4.266,3.456-4.266,2.187,0,3.456,1.62,3.456,4.32v.189C50.772,95.707,49.5,97.327,47.316,97.327Zm-.027,2.97c4.239,0,7.452-2.835,7.452-7.29v-.216c0-4.4-3.186-7.236-7.425-7.236a7.081,7.081,0,0,0-7.452,7.317v.216C39.864,97.489,43.077,100.3,47.289,100.3Zm10.725-.3H61.9V88.66H64.98V85.879H61.9V84.151a1.636,1.636,0,0,1,1.755-1.863,4.264,4.264,0,0,1,1.431.243V79.588a6.454,6.454,0,0,0-2.025-.27c-3.132,0-5.049,1.647-5.049,4.941v1.62H56.151V88.66h1.863Zm15.816,0h4.4V80.695h-4.4Zm8.321,0h3.915V91.846a2.8,2.8,0,0,1,2.943-3.105c1.728,0,2.484.918,2.484,2.835V100h3.915V91.009c0-3.78-1.971-5.454-4.752-5.454a4.878,4.878,0,0,0-4.59,2.565V85.879H82.151Zm21.9.3a5.139,5.139,0,0,0,4.536-2.646V100h3.888V79.48H108.59v8.5a4.7,4.7,0,0,0-4.455-2.43c-3.537,0-6.21,2.727-6.21,7.371v.216C97.925,97.84,100.625,100.3,104.054,100.3Zm1.161-3.051c-1.944,0-3.294-1.377-3.294-4.185v-.216c0-2.808,1.215-4.293,3.4-4.293,2.133,0,3.375,1.431,3.375,4.239v.216C108.7,95.869,107.267,97.246,105.215,97.246ZM116.062,100h3.888V85.879h-3.888Zm1.917-16.038a2.134,2.134,0,1,0-2.214-2.133A2.147,2.147,0,0,0,117.979,83.962Zm9.375,16.335a4.8,4.8,0,0,0,4.266-2V100h3.807V90.793c0-3.834-2.457-5.238-5.913-5.238s-6.1,1.485-6.345,4.833h3.7a2.129,2.129,0,0,1,2.4-2c1.782,0,2.295.918,2.295,2.592v.567h-1.593c-4.32,0-7.344,1.242-7.344,4.536C122.629,99.055,124.789,100.3,127.354,100.3Zm1.161-2.727c-1.431,0-2.052-.675-2.052-1.7,0-1.512,1.323-2,3.591-2h1.512v1.188C131.566,96.625,130.243,97.57,128.515,97.57Z" fill="#fff"/>
    </g>
  </g>
</svg>
