<?xml version="1.0" encoding="UTF-8"?>
<svg width="368px" height="81px" viewBox="0 0 368 81" version="1.1" xmlns="http://www.w3.org/2000/svg" xmlns:xlink="http://www.w3.org/1999/xlink">
    <title>Group 21</title>
    <defs>
        <radialGradient cx="97.4203634%" cy="11.2516631%" fx="97.4203634%" fy="11.2516631%" r="231.989379%" gradientTransform="translate(0.974204,0.112517),scale(0.593486,1.000000),rotate(148.584096),translate(-0.974204,-0.112517)" id="radialGradient-1">
            <stop stop-color="#00FFFF" offset="0%"></stop>
            <stop stop-color="#9C66FF" offset="100%"></stop>
        </radialGradient>
    </defs>
    <g id="Page-1" stroke="none" stroke-width="1" fill="none" fill-rule="evenodd">
        <g id="1" transform="translate(-657.000000, -205.000000)" fill-rule="nonzero">
            <g id="Group-2" transform="translate(657.000000, 205.000000)">
                <path d="M21.2176787,61.6217002 C28.7465324,61.6217002 34.421691,59.4823872 38.2431547,55.2037613 C42.0646183,50.9251353 43.9753501,45.4989309 43.9753501,38.9251479 L43.9753501,38.9251479 L43.9753501,1.94761897 L31.5698525,1.94761897 L31.5698525,6.4529271 C30.8283745,5.09283408 29.459492,3.87441741 27.463205,2.79767711 C25.4669181,1.7209368 22.9002634,1.18256665 19.763241,1.18256665 C14.0595639,1.18256665 9.33977118,3.20853854 5.60386271,7.26048233 C1.86795424,11.3124261 0,16.1719251 0,21.8389794 C0,27.7327158 1.88221343,32.6347177 5.64664029,36.5449852 C9.41106715,40.4552526 14.1166007,42.4103863 19.763241,42.4103863 C25.238771,42.4103863 29.0317162,40.8236111 31.1420767,37.6500607 L31.1420767,37.6500607 L31.1420767,39.6051944 C31.1420767,46.8023533 27.6343153,50.4009328 20.6187926,50.4009328 C18.2232482,50.4009328 16.212702,49.7492215 14.5871541,48.4457991 C12.9616061,47.1423766 11.9206851,45.4422603 11.4643909,43.3454502 L11.4643909,43.3454502 L0,46.5756712 C0.627404476,50.6559502 2.86609772,54.1836915 6.71607974,57.158895 C10.5660618,60.1340985 15.3999281,61.6217002 21.2176787,61.6217002 Z M22.1587854,31.1896189 C19.4780572,31.1896189 17.2821415,30.3395608 15.5710384,28.6394445 C13.8599353,26.9393282 13.0043837,24.6725065 13.0043837,21.8389794 C13.0043837,19.0621228 13.9027128,16.8094687 15.6993711,15.0810172 C17.4960294,13.3525656 19.6491675,12.4883399 22.1587854,12.4883399 C24.6684033,12.4883399 26.8072822,13.3525656 28.5754221,15.0810172 C30.3435619,16.8094687 31.2276319,19.0621228 31.2276319,21.8389794 C31.2276319,24.6725065 30.3863395,26.9393282 28.7037548,28.6394445 C27.0211701,30.3395608 24.8395136,31.1896189 22.1587854,31.1896189 Z M63.7867159,44.1955084 L63.7867159,25.7492468 C63.7867159,21.8389794 64.7135634,18.9487817 66.5672585,17.0786538 C68.4209535,15.2085259 70.8022387,14.273462 73.711114,14.273462 C75.2511068,14.273462 76.6199893,14.4151383 77.8177615,14.698491 L77.8177615,14.698491 L77.8177615,1.94761897 C76.8481364,1.66426626 75.707401,1.5225899 74.3955552,1.5225899 C72.2851947,1.5225899 70.1748342,2.00428951 68.0644737,2.96768873 C65.9541132,3.93108796 64.385602,5.48952787 63.3589401,7.64300849 L63.3589401,7.64300849 L63.3589401,1.94761897 L50.7823322,1.94761897 L50.7823322,44.1955084 L63.7867159,44.1955084 Z M94.0358107,45.3855898 C99.5683774,45.3855898 103.560951,43.4021208 106.013533,39.4351828 C106.013533,41.4753223 106.156124,43.0620975 106.441308,44.1955084 L106.441308,44.1955084 L118.162365,44.1955084 C117.820144,42.4953921 117.649034,40.3135762 117.649034,37.6500607 L117.649034,37.6500607 L117.649034,16.993648 C117.649034,12.2333224 116.1233,8.323055 113.071833,5.2628457 C110.020366,2.20263641 105.272055,0.672531763 98.8268994,0.672531763 C93.1232224,0.672531763 88.6600951,2.13179823 85.4375175,5.05033117 C82.21494,7.96886411 80.4610593,11.1849174 80.1758754,14.698491 L80.1758754,14.698491 L91.469156,16.993648 C91.5832296,15.2935317 92.28193,13.8342653 93.5652573,12.6158486 C94.8485847,11.3974319 96.573947,10.7882236 98.7413443,10.7882236 C100.680594,10.7882236 102.206328,11.2274203 103.318545,12.1058137 C104.430762,12.9842071 104.986871,14.0751151 104.986871,15.3785375 C104.986871,17.0219833 103.960209,17.9853825 101.906885,18.2687352 L101.906885,18.2687352 L91.8969318,19.7988398 C88.1895417,20.3655453 85.1665929,21.7398059 82.8280853,23.9216218 C80.4895777,26.1034377 79.3203239,28.9794677 79.3203239,32.5497119 C79.3203239,36.0632855 80.6464288,39.0809919 83.2986386,41.6028311 C85.9508485,44.1246702 89.5299058,45.3855898 94.0358107,45.3855898 Z M97.2013515,36.0349503 C95.4902483,36.0349503 94.2211802,35.6099212 93.394147,34.7598631 C92.5671139,33.9098049 92.1535973,32.8897352 92.1535973,31.6996538 C92.1535973,29.0928088 93.7506268,27.5343689 96.944686,27.024334 L96.944686,27.024334 L104.986871,25.7492468 L104.986871,27.6193747 C104.986871,30.6229135 104.245393,32.7763941 102.762437,34.0798166 C101.279481,35.383239 99.4257855,36.0349503 97.2013515,36.0349503 Z M137.4604,60.346613 L137.4604,40.8802817 C139.798907,43.7138088 143.648889,45.1305723 149.010346,45.1305723 C154.94217,45.1305723 159.804554,43.0479299 163.5975,38.882645 C167.390445,34.7173602 169.286917,29.4044968 169.286917,22.944055 C169.286917,16.4836131 167.504518,11.199085 163.93972,7.0904707 C160.374922,2.98185637 155.569574,0.927549204 149.523676,0.927549204 C146.671838,0.927549204 144.119442,1.45175172 141.86649,2.50015676 C139.613538,3.54856179 138.002249,4.80948136 137.032624,6.28291547 L137.032624,6.28291547 L137.032624,1.94761897 L124.456016,1.94761897 L124.456016,60.346613 L137.4604,60.346613 Z M146.871467,33.5697817 C144.190738,33.5697817 141.923527,32.6488854 140.069832,30.8070927 C138.216137,28.9653001 137.289289,26.3726228 137.289289,23.0290608 C137.289289,19.6854988 138.216137,17.1069891 140.069832,15.2935317 C141.923527,13.4800744 144.190738,12.5733457 146.871467,12.5733457 C149.609232,12.5733457 151.904962,13.4800744 153.758657,15.2935317 C155.612352,17.1069891 156.539199,19.6854988 156.539199,23.0290608 C156.539199,26.3726228 155.598093,28.9794677 153.715879,30.8495956 C151.890702,32.663053 149.609232,33.5697817 146.871467,33.5697817 Z M186.531629,60.346613 L186.531629,40.8802817 C188.870136,43.7138088 192.720118,45.1305723 198.081575,45.1305723 C204.013399,45.1305723 208.875783,43.0479299 212.668729,38.882645 C216.461674,34.7173602 218.358147,29.4044968 218.358147,22.944055 C218.358147,16.4836131 216.575747,11.199085 213.010949,7.0904707 C209.446151,2.98185637 204.640803,0.927549204 198.594906,0.927549204 C195.743067,0.927549204 193.190672,1.45175172 190.937719,2.50015676 C188.684767,3.54856179 187.073478,4.80948136 186.103853,6.28291547 L186.103853,6.28291547 L186.103853,1.94761897 L173.527245,1.94761897 L173.527245,60.346613 L186.531629,60.346613 Z M195.942696,33.5697817 C193.261968,33.5697817 190.994756,32.6488854 189.141061,30.8070927 C187.287366,28.9653001 186.360518,26.3726228 186.360518,23.0290608 C186.360518,19.6854988 187.287366,17.1069891 189.141061,15.2935317 C190.994756,13.4800744 193.261968,12.5733457 195.942696,12.5733457 C198.680461,12.5733457 200.976191,13.4800744 202.829886,15.2935317 C204.683581,17.1069891 205.610428,19.6854988 205.610428,23.0290608 C205.610428,26.3726228 204.669322,28.9794677 202.787108,30.8495956 C200.961932,32.663053 198.680461,33.5697817 195.942696,33.5697817 Z M238.255068,45.1305723 C240.593575,45.1305723 242.818009,44.6913756 244.92837,43.8129822 C247.03873,42.9345888 248.607241,41.645334 249.633903,39.9452177 C249.633903,41.7586751 249.747977,43.1754386 249.976124,44.1955084 L249.976124,44.1955084 L262.467177,44.1955084 C262.181993,41.9286867 262.039401,39.4068475 262.039401,36.629991 L262.039401,36.629991 L262.039401,1.94761897 L249.035017,1.94761897 L249.035017,26.0042643 C249.035017,28.1577449 248.393353,29.900364 247.110026,31.2321218 C245.826699,32.5638795 244.101337,33.2297584 241.933939,33.2297584 C239.709505,33.2297584 238.012661,32.5497119 236.843407,31.1896189 C235.674154,29.8295259 235.089527,28.0727391 235.089527,25.9192584 L235.089527,25.9192584 L235.089527,1.94761897 L222.085143,1.94761897 L222.085143,28.6394445 C222.085143,33.3430995 223.525322,37.2675346 226.405678,40.4127497 C229.286035,43.5579648 233.235832,45.1305723 238.255068,45.1305723 Z M283.818535,45.4705956 C289.179992,45.4705956 293.343676,44.0679997 296.309588,41.2628078 C299.2755,38.457616 300.758456,35.0998863 300.758456,31.1896189 C300.758456,27.959398 299.646239,25.1542061 297.421805,22.7740433 C295.197371,20.3938805 291.946275,18.7787701 287.668517,17.9287119 L287.668517,17.9287119 L282.021877,16.8236364 C279.797443,16.4269426 278.685226,15.3785375 278.685226,13.6784213 C278.685226,12.601681 279.14152,11.7232875 280.054108,11.043241 C280.966697,10.3631945 282.050395,10.0231713 283.305204,10.0231713 C285.187418,10.0231713 286.627596,10.5048709 287.62574,11.4682701 C288.623883,12.4316693 289.20851,13.6784213 289.37962,15.2085259 L289.37962,15.2085259 L300.15957,13.2533922 C299.874386,10.1365124 298.348653,7.26048233 295.582369,4.6253021 C292.816086,1.99012188 288.666661,0.672531763 283.134094,0.672531763 C278.457079,0.672531763 274.564319,2.03262478 271.455815,4.75281082 C268.347311,7.47299686 266.793059,10.7882236 266.793059,14.698491 C266.793059,17.8720414 267.819721,20.6063951 269.873045,22.9015521 C271.926369,25.196709 275.120428,26.7976518 279.455222,27.7043805 L279.455222,27.7043805 L284.331866,28.8094561 C287.126668,29.4328321 288.524069,30.5945782 288.524069,32.2946945 C288.524069,33.3147642 288.096293,34.17899 287.240741,34.8873718 C286.38519,35.5957536 285.158899,35.9499445 283.56187,35.9499445 C281.451509,35.9499445 279.84022,35.3974067 278.728003,34.2923311 C277.615786,33.1872555 277.002641,31.8413301 276.888568,30.2545549 L276.888568,30.2545549 L265.851952,32.2096887 C265.966026,33.5131111 266.351024,34.8732041 267.006947,36.2899677 C267.66287,37.7067313 268.632495,39.1376625 269.915822,40.5827613 C271.19915,42.0278601 273.052845,43.2037739 275.476908,44.1105026 C277.90097,45.0172313 280.681513,45.4705956 283.818535,45.4705956 Z" id="grappus" fill="#FFFFFF"></path>
                <g id="Group" transform="translate(206.500801, 0.000000)" fill="url(#radialGradient-1)" font-family="Quentin" font-size="62.202" font-weight="normal">
                    <text id="daily" transform="translate(80.749599, 54.000000) rotate(-7.000000) translate(-80.749599, -54.000000) ">
                        <tspan x="5.17416947" y="69">daily</tspan>
                    </text>
                </g>
            </g>
        </g>
    </g>
</svg>