<svg width="140" height="108" viewBox="0 0 140 108" fill="none" xmlns="http://www.w3.org/2000/svg">
<rect y="30.8574" width="123.241" height="78.5027" rx="16.8534" transform="rotate(-14.5 0 30.8574)" fill="#F2F2F2"/>
<path fill-rule="evenodd" clip-rule="evenodd" d="M4.07986 45.297C4.78794 43.052 8.81342 40.9731 11.2338 40.3471C14.5943 39.478 18.4227 40.6617 21.7574 41.7602C26.6221 43.6639 37.7786 49.8918 47.4919 55.3141C47.8883 55.5354 48.2824 55.7554 48.6735 55.9736C56.8169 60.993 65.4609 64.8729 67.076 65.5978C67.117 65.6162 67.1533 65.6325 67.1851 65.6468C70.9874 67.3562 77.1576 66.8992 80.2551 62.2667C82.534 58.8584 85.0374 54.4158 87.1271 50.7074C88.3809 48.4825 89.4857 46.5218 90.3038 45.2073C92.8147 41.1731 95.1643 36.7646 97.3434 32.6759C100.51 26.7343 103.317 21.4681 105.735 19.0071C107.718 16.9897 110.427 14.5386 113.698 13.8511C116.969 13.1635 120.538 13.5317 122.929 15.5955C122.633 14.4519 121.748 13.3448 120.552 12.345C118.238 11.0269 115.29 10.2706 112.771 10.8C109.5 11.4876 106.517 13.3548 104.534 15.3721C100.067 19.9175 96.2647 26.7653 92.3685 33.7813C90.4969 37.1516 88.6038 40.5607 86.6051 43.772C85.8412 44.9995 85.0769 46.3075 84.2497 47.7233C82.7145 50.3509 80.9623 53.3497 78.5928 56.8935C75.4954 61.526 69.161 62.0254 65.3587 60.3161C62.8092 59.1699 55.9018 55.3935 47.5522 50.247C37.5482 44.9067 25.0847 39.026 20.0214 37.0446C16.6867 35.9461 12.89 35.9566 9.83918 37.6121C6.37244 39.4933 4.78794 43.052 4.07986 45.297Z" fill="black"/>
<path d="M60.3217 75.2959C60.3217 75.2959 68.845 73.3743 74.2799 71.9687C79.7148 70.5632 88.1074 68.11 88.1074 68.11C88.1074 68.11 80.1375 72.1976 74.7026 73.6032C69.2677 75.0088 60.3217 75.2959 60.3217 75.2959Z" fill="white"/>
<path d="M59.8375 75.4213C59.8375 75.4213 68.5262 72.1413 73.961 70.7358C79.3959 69.3302 88.3979 68.0351 88.3979 68.0351C88.3979 68.0351 79.8872 71.2297 74.4523 72.6352C69.0174 74.0408 59.8375 75.4213 59.8375 75.4213Z" fill="#101010"/>
<path fill-rule="evenodd" clip-rule="evenodd" d="M18.5147 97.1187C21.5483 101.094 26.2197 103.545 31.2797 103.735C33.7441 103.827 36.5523 103.101 42.1689 101.649L116.777 82.3537C122.393 80.9012 125.201 80.1749 127.312 78.8992C131.888 76.1334 134.863 71.3729 135.37 66.0888C134.106 69.7909 131.573 72.9913 128.138 75.0676C126.028 76.3433 123.219 77.0696 117.603 78.5221L39.3555 98.7582C33.739 100.211 30.9308 100.937 28.4664 100.844C24.7825 100.706 21.3046 99.3696 18.5147 97.1187Z" fill="black"/>
<path d="M4.24017 39.2649C5.60694 31.0645 8.96744 28.8876 16.553 26.9258L100.266 5.27604C107.852 3.31428 115.576 3.59333 120.993 11.4446C115.217 4.20259 108.183 6.56684 101.076 8.40502L17.3622 30.0548C14.2731 30.8537 7.34706 31.0504 4.24017 39.2649Z" fill="white"/>
</svg>
