<?xml version="1.0" encoding="UTF-8"?>
<svg width="75px" height="26px" viewBox="0 0 75 26" version="1.1" xmlns="http://www.w3.org/2000/svg" xmlns:xlink="http://www.w3.org/1999/xlink">
    <!-- Generator: Sketch 52.5 (67469) - http://www.bohemiancoding.com/sketch -->
    <title>OYO</title>
    <desc>Created with Sketch.</desc>
    <g id="Page-1" stroke="none" stroke-width="1" fill="none" fill-rule="evenodd">
        <g id="1440-Width" transform="translate(-863.000000, -1567.000000)" fill="#D8D8D8" fill-rule="nonzero">
            <g id="OYO" transform="translate(863.000000, 1567.000000)">
                <path d="M50.82037,0.1727001 L41.4783344,0.1727001 L37.4913705,8.0720026 L33.5028535,0.1727001 L24.1623712,0.1727001 L32.886713,17.4565261 L32.886713,25.5941548 L42.097754,25.5941548 L42.097754,17.4565261 L50.82037,0.1727001 Z M62.007548,17.6326801 C59.4532401,17.6326801 57.377002,15.555098 57.377002,12.9991365 C57.377002,10.4431751 59.4532401,8.3655928 62.007548,8.3655928 C64.56013,8.3655928 66.63982,10.4431751 66.63982,12.9991365 C66.63982,15.555098 64.56013,17.6326801 62.007548,17.6326801 Z M62.007548,0 C54.841679,0 49.0150958,5.8303553 49.0150958,12.9991365 C49.0150958,20.1679176 54.841679,26 62.007548,26 C69.170138,26 75,20.1679176 75,12.9991365 C75,5.8303553 69.170138,0 62.007548,0 Z M12.9907263,17.6326801 C10.4381443,17.6326801 8.3619063,15.555098 8.3619063,12.9991365 C8.3619063,10.4431751 10.4381443,8.3655928 12.9907263,8.3655928 C15.5450341,8.3655928 17.622998,10.4431751 17.622998,12.9991365 C17.622998,15.555098 15.5450341,17.6326801 12.9907263,17.6326801 Z M0,12.9991365 C0,20.1679176 5.8284816,26 12.9907263,26 C20.1548693,26 25.9831784,20.1679176 25.9831784,12.9991365 C25.9831784,5.8303553 20.1548693,0 12.9907263,0 C5.8284816,0 0,5.8303553 0,12.9991365 Z" id="Fill-665"></path>
            </g>
        </g>
    </g>
</svg>